<mxfile host="app.diagrams.net" modified="2024-07-07T13:22:41.647Z" agent="Mozilla/5.0 (Windows NT 10.0; Win64; x64) AppleWebKit/537.36 (KHTML, like Gecko) Chrome/126.0.0.0 Safari/537.36" etag="XR4SVWjrOT2HNtKw9y0j" version="24.6.4" type="device">
  <diagram name="Page-1" id="EL_uKarphGHDU4lz_P9g">
    <mxGraphModel dx="3235" dy="3595" grid="1" gridSize="10" guides="1" tooltips="1" connect="1" arrows="1" fold="1" page="1" pageScale="1" pageWidth="850" pageHeight="1100" math="0" shadow="0">
      <root>
        <mxCell id="0" />
        <mxCell id="1" parent="0" />
        <mxCell id="Pq0L_0yq8aCEjUIHfz3s-1" value="&lt;font style=&quot;font-size: 15px;&quot;&gt;&lt;b&gt;Client&lt;/b&gt;&lt;/font&gt;" style="rounded=1;whiteSpace=wrap;html=1;fillColor=#f8cecc;strokeColor=#b85450;fontFamily=Comic Sans MS;" parent="1" vertex="1">
          <mxGeometry x="510" y="-35" width="120" height="40" as="geometry" />
        </mxCell>
        <mxCell id="Pq0L_0yq8aCEjUIHfz3s-2" value="&lt;font style=&quot;&quot;&gt;&lt;span style=&quot;font-size: 15px;&quot;&gt;&lt;b&gt;API Gateway &lt;/b&gt;&lt;i style=&quot;&quot;&gt;(&lt;/i&gt;&lt;/span&gt;&lt;i style=&quot;&quot;&gt;&lt;span style=&quot;font-size: 15px;&quot;&gt;NGINX&lt;/span&gt;&lt;span style=&quot;font-size: 15px;&quot;&gt;)&lt;/span&gt;&lt;/i&gt;&lt;/font&gt;&lt;div&gt;&lt;span style=&quot;font-size: 15px;&quot;&gt;&lt;i&gt;&lt;br&gt;&lt;/i&gt;&lt;/span&gt;&lt;div&gt;&lt;font style=&quot;&quot;&gt;&lt;i style=&quot;&quot;&gt;&lt;span style=&quot;font-size: 15px;&quot;&gt;-&amp;nbsp;&lt;/span&gt;&lt;/i&gt;&lt;/font&gt;&lt;span style=&quot;background-color: initial; font-size: 15px;&quot;&gt;&lt;i&gt;authentication&lt;/i&gt;&lt;/span&gt;&lt;/div&gt;&lt;div&gt;&lt;span style=&quot;background-color: initial; font-size: 15px;&quot;&gt;&lt;i&gt;- rate limiting&lt;/i&gt;&lt;/span&gt;&lt;/div&gt;&lt;div&gt;&lt;span style=&quot;background-color: initial; font-size: 15px;&quot;&gt;&lt;i&gt;- routing&lt;/i&gt;&lt;/span&gt;&lt;/div&gt;&lt;/div&gt;" style="rounded=1;whiteSpace=wrap;html=1;fillColor=#dae8fc;strokeColor=#6c8ebf;fontFamily=Comic Sans MS;" parent="1" vertex="1">
          <mxGeometry x="710" y="-115" width="120" height="200" as="geometry" />
        </mxCell>
        <mxCell id="Pq0L_0yq8aCEjUIHfz3s-3" value="&lt;font style=&quot;font-size: 15px;&quot;&gt;&lt;b&gt;CRUD Service&lt;/b&gt;&lt;/font&gt;" style="rounded=1;whiteSpace=wrap;html=1;fillColor=#d5e8d4;strokeColor=#82b366;fontFamily=Comic Sans MS;" parent="1" vertex="1">
          <mxGeometry x="1101" y="-275" width="120" height="80" as="geometry" />
        </mxCell>
        <mxCell id="Pq0L_0yq8aCEjUIHfz3s-4" value="&lt;b style=&quot;font-size: 15px;&quot;&gt;Database&lt;/b&gt;&lt;div&gt;&lt;span style=&quot;font-size: 15px;&quot;&gt;(&lt;/span&gt;&lt;span style=&quot;font-size: 15px;&quot;&gt;&lt;i&gt;POSTGRES&lt;/i&gt;&lt;/span&gt;&lt;span style=&quot;font-size: 15px;&quot;&gt;)&lt;/span&gt;&lt;/div&gt;" style="shape=cylinder3;whiteSpace=wrap;html=1;boundedLbl=1;backgroundOutline=1;size=15;fillColor=#ffe6cc;strokeColor=#d79b00;fontFamily=Comic Sans MS;" parent="1" vertex="1">
          <mxGeometry x="1331" y="-280" width="160" height="90" as="geometry" />
        </mxCell>
        <mxCell id="Pq0L_0yq8aCEjUIHfz3s-5" value="" style="endArrow=classic;startArrow=classic;html=1;rounded=0;entryX=0;entryY=0.5;entryDx=0;entryDy=0;exitX=1;exitY=0.5;exitDx=0;exitDy=0;fontFamily=Comic Sans MS;" parent="1" source="Pq0L_0yq8aCEjUIHfz3s-1" target="Pq0L_0yq8aCEjUIHfz3s-2" edge="1">
          <mxGeometry width="50" height="50" relative="1" as="geometry">
            <mxPoint x="570" y="95" as="sourcePoint" />
            <mxPoint x="620" y="45" as="targetPoint" />
          </mxGeometry>
        </mxCell>
        <mxCell id="Pq0L_0yq8aCEjUIHfz3s-10" value="" style="endArrow=classic;startArrow=classic;html=1;rounded=0;entryX=0;entryY=0.5;entryDx=0;entryDy=0;entryPerimeter=0;exitX=1;exitY=0.5;exitDx=0;exitDy=0;fontFamily=Comic Sans MS;" parent="1" source="Pq0L_0yq8aCEjUIHfz3s-3" target="Pq0L_0yq8aCEjUIHfz3s-4" edge="1">
          <mxGeometry width="50" height="50" relative="1" as="geometry">
            <mxPoint x="711" y="-62.5" as="sourcePoint" />
            <mxPoint x="761" y="-112.5" as="targetPoint" />
          </mxGeometry>
        </mxCell>
        <mxCell id="Pq0L_0yq8aCEjUIHfz3s-11" value="&lt;font style=&quot;font-size: 15px;&quot;&gt;&lt;b&gt;Search Service&lt;/b&gt;&lt;/font&gt;" style="rounded=1;whiteSpace=wrap;html=1;fillColor=#d5e8d4;strokeColor=#82b366;fontFamily=Comic Sans MS;" parent="1" vertex="1">
          <mxGeometry x="1101" y="157.5" width="120" height="80" as="geometry" />
        </mxCell>
        <mxCell id="Pq0L_0yq8aCEjUIHfz3s-12" value="SEARCH" style="endArrow=classic;startArrow=classic;html=1;rounded=0;exitX=1;exitY=0.5;exitDx=0;exitDy=0;entryX=0;entryY=0.5;entryDx=0;entryDy=0;fontFamily=Comic Sans MS;" parent="1" source="Pq0L_0yq8aCEjUIHfz3s-2" target="Pq0L_0yq8aCEjUIHfz3s-11" edge="1">
          <mxGeometry width="50" height="50" relative="1" as="geometry">
            <mxPoint x="970" y="195" as="sourcePoint" />
            <mxPoint x="1020" y="145" as="targetPoint" />
          </mxGeometry>
        </mxCell>
        <mxCell id="Pq0L_0yq8aCEjUIHfz3s-15" value="&lt;b style=&quot;font-size: 15px;&quot;&gt;Elasticsearch&lt;/b&gt;" style="shape=cylinder3;whiteSpace=wrap;html=1;boundedLbl=1;backgroundOutline=1;size=15;fillColor=#ffe6cc;strokeColor=#d79b00;fontFamily=Comic Sans MS;" parent="1" vertex="1">
          <mxGeometry x="1351" y="152.5" width="160" height="90" as="geometry" />
        </mxCell>
        <mxCell id="Pq0L_0yq8aCEjUIHfz3s-16" value="" style="endArrow=classic;startArrow=classic;html=1;rounded=0;entryX=0;entryY=0.5;entryDx=0;entryDy=0;entryPerimeter=0;exitX=1;exitY=0.5;exitDx=0;exitDy=0;fontFamily=Comic Sans MS;" parent="1" source="Pq0L_0yq8aCEjUIHfz3s-11" target="Pq0L_0yq8aCEjUIHfz3s-15" edge="1">
          <mxGeometry width="50" height="50" relative="1" as="geometry">
            <mxPoint x="711" y="-107.5" as="sourcePoint" />
            <mxPoint x="831" y="-107.5" as="targetPoint" />
          </mxGeometry>
        </mxCell>
        <mxCell id="Pq0L_0yq8aCEjUIHfz3s-38" value="&lt;div style=&quot;text-align: center;&quot;&gt;&lt;b style=&quot;color: rgb(51, 51, 51); background-color: initial;&quot;&gt;&lt;font style=&quot;font-size: 15px;&quot;&gt;Functional Requirements&lt;/font&gt;&lt;/b&gt;&lt;/div&gt;&lt;div style=&quot;font-size: 17px; color: rgb(51, 51, 51);&quot;&gt;&lt;b&gt;&lt;font style=&quot;font-size: 15px;&quot;&gt;Core Requrements&lt;/font&gt;&lt;br&gt;&lt;/b&gt;&lt;div style=&quot;font-size: 12px;&quot;&gt;&lt;ul&gt;&lt;li&gt;&lt;font style=&quot;font-size: 15px;&quot;&gt;user should be able to create &amp;amp; update &amp;amp; delete &amp;amp; view&amp;nbsp;character&lt;/font&gt;&lt;/li&gt;&lt;li&gt;&lt;font style=&quot;font-size: 15px;&quot;&gt;user should be able to search characters by&amp;nbsp;terms&lt;/font&gt;&lt;/li&gt;&lt;/ul&gt;&lt;/div&gt;&lt;/div&gt;&lt;div style=&quot;color: rgb(51, 51, 51);&quot;&gt;&lt;b style=&quot;font-size: 17px;&quot;&gt;&lt;font style=&quot;font-size: 15px;&quot;&gt;Out of scope&lt;/font&gt;&lt;/b&gt;&lt;div&gt;&lt;ul style=&quot;color: rgb(0, 0, 0);&quot;&gt;&lt;li style=&quot;color: rgb(51, 51, 51); font-size: 15px;&quot;&gt;user should be able to see character&#39;s family tree&lt;br&gt;&lt;/li&gt;&lt;li style=&quot;color: rgb(51, 51, 51); font-size: 15px;&quot;&gt;user should be able to see game of thrones historical timeline&lt;/li&gt;&lt;/ul&gt;&lt;/div&gt;&lt;/div&gt;" style="shape=note;size=20;whiteSpace=wrap;html=1;align=left;fillColor=#fff2cc;strokeColor=#d6b656;fontFamily=Comic Sans MS;" parent="1" vertex="1">
          <mxGeometry x="-240" y="-1040" width="440" height="240" as="geometry" />
        </mxCell>
        <mxCell id="Pq0L_0yq8aCEjUIHfz3s-39" value="&lt;div style=&quot;text-align: center;&quot;&gt;&lt;div&gt;&lt;b style=&quot;color: rgb(51, 51, 51); background-color: initial;&quot;&gt;&lt;font style=&quot;font-size: 15px;&quot;&gt;Non-Functional Requirements&lt;/font&gt;&lt;/b&gt;&lt;/div&gt;&lt;div style=&quot;text-align: left;&quot;&gt;&lt;b style=&quot;font-size: 17px; color: rgb(51, 51, 51);&quot;&gt;&lt;font style=&quot;font-size: 15px;&quot;&gt;Core Requrements&lt;/font&gt;&lt;br&gt;&lt;/b&gt;&lt;div&gt;&lt;ul&gt;&lt;li style=&quot;font-size: 15px; color: rgb(51, 51, 51);&quot;&gt;system should prioritize availability for searching &amp;amp; viewing characters&lt;/li&gt;&lt;li style=&quot;font-size: 15px;&quot;&gt;&lt;span style=&quot;color: rgb(51, 51, 51); background-color: initial;&quot;&gt;system is read heavy, and thus needs to be able to support high read throughput (100:1)&lt;/span&gt;&lt;/li&gt;&lt;li style=&quot;font-size: 15px;&quot;&gt;system should be well tested and easy to deploy (CI/CD pipelines)&lt;/li&gt;&lt;li style=&quot;font-size: 15px;&quot;&gt;system should be well documented (OpenAPI &amp;amp; AsyncAPI)&lt;/li&gt;&lt;/ul&gt;&lt;/div&gt;&lt;/div&gt;&lt;div style=&quot;text-align: left;&quot;&gt;&lt;b style=&quot;color: rgb(51, 51, 51); font-size: 15px;&quot;&gt;Out of scope&lt;/b&gt;&lt;/div&gt;&lt;div style=&quot;text-align: left;&quot;&gt;&lt;ul&gt;&lt;li style=&quot;color: rgb(51, 51, 51); font-size: 15px;&quot;&gt;system should protect user data and adhere to GDPR&lt;br&gt;&lt;/li&gt;&lt;li style=&quot;color: rgb(51, 51, 51); font-size: 15px;&quot;&gt;system should be fault tolerant&lt;/li&gt;&lt;li style=&quot;color: rgb(51, 51, 51); font-size: 15px;&quot;&gt;&lt;span style=&quot;background-color: initial;&quot;&gt;system should have regular backups&lt;/span&gt;&lt;/li&gt;&lt;/ul&gt;&lt;/div&gt;&lt;/div&gt;" style="shape=note;size=20;whiteSpace=wrap;html=1;align=left;fillColor=#fff2cc;strokeColor=#d6b656;fontFamily=Comic Sans MS;" parent="1" vertex="1">
          <mxGeometry x="-240" y="-720" width="440" height="320" as="geometry" />
        </mxCell>
        <mxCell id="Pq0L_0yq8aCEjUIHfz3s-41" value="&lt;div style=&quot;&quot;&gt;&lt;b style=&quot;font-size: 15px; color: rgb(51, 51, 51); background-color: initial;&quot;&gt;Characters&lt;/b&gt;&lt;br&gt;&lt;/div&gt;&lt;div style=&quot;font-size: 15px;&quot;&gt;&lt;div style=&quot;&quot;&gt;&lt;font style=&quot;font-size: 15px;&quot;&gt;- id (primary key)&lt;/font&gt;&lt;/div&gt;&lt;div style=&quot;&quot;&gt;&lt;font style=&quot;font-size: 15px;&quot;&gt;- name&amp;nbsp;&lt;/font&gt;&lt;/div&gt;&lt;div style=&quot;&quot;&gt;&lt;font style=&quot;font-size: 15px;&quot;&gt;- nickname&lt;/font&gt;&lt;/div&gt;&lt;div style=&quot;&quot;&gt;&lt;font style=&quot;font-size: 15px;&quot;&gt;- link&lt;/font&gt;&lt;/div&gt;&lt;div style=&quot;&quot;&gt;&lt;font style=&quot;font-size: 15px;&quot;&gt;- royal (boolean)&lt;/font&gt;&lt;/div&gt;&lt;div style=&quot;&quot;&gt;&lt;font style=&quot;font-size: 15px;&quot;&gt;- kingsguard (boolean)&lt;/font&gt;&lt;/div&gt;&lt;div style=&quot;&quot;&gt;&lt;font style=&quot;font-size: 15px;&quot;&gt;- imageFull&lt;/font&gt;&lt;/div&gt;&lt;div style=&quot;&quot;&gt;&lt;font style=&quot;font-size: 15px;&quot;&gt;- imageThumb&lt;/font&gt;&lt;/div&gt;&lt;/div&gt;" style="shape=note;size=20;whiteSpace=wrap;html=1;align=left;fillColor=#fff2cc;strokeColor=#d6b656;fontFamily=Comic Sans MS;" parent="1" vertex="1">
          <mxGeometry x="590" y="-1000" width="200" height="240" as="geometry" />
        </mxCell>
        <mxCell id="QgtI1r11p6IPHClsg6qV-6" value="&lt;div style=&quot;font-family: &amp;quot;Comic Sans MS&amp;quot;;&quot;&gt;&lt;font color=&quot;#333333&quot;&gt;&lt;span style=&quot;font-size: 15px;&quot;&gt;&lt;b&gt;Core Entities&lt;/b&gt;&lt;/span&gt;&lt;/font&gt;&lt;/div&gt;&lt;div&gt;&lt;font color=&quot;#333333&quot;&gt;&lt;span style=&quot;font-size: 15px;&quot;&gt;&lt;b&gt;&lt;br&gt;&lt;/b&gt;&lt;/span&gt;&lt;/font&gt;&lt;/div&gt;" style="text;html=1;align=center;verticalAlign=top;whiteSpace=wrap;rounded=0;fillColor=#fff2cc;strokeColor=#d6b656;" parent="1" vertex="1">
          <mxGeometry x="906" y="-1095" width="170" height="40" as="geometry" />
        </mxCell>
        <mxCell id="QgtI1r11p6IPHClsg6qV-7" value="&lt;div style=&quot;font-family: &amp;quot;Comic Sans MS&amp;quot;;&quot;&gt;&lt;font color=&quot;#333333&quot;&gt;&lt;span style=&quot;font-size: 15px;&quot;&gt;&lt;b&gt;Requirements&lt;/b&gt;&lt;/span&gt;&lt;/font&gt;&lt;/div&gt;" style="text;html=1;align=center;verticalAlign=top;whiteSpace=wrap;rounded=0;fillColor=#fff2cc;strokeColor=#d6b656;" parent="1" vertex="1">
          <mxGeometry x="-130" y="-1120" width="170" height="40" as="geometry" />
        </mxCell>
        <mxCell id="QgtI1r11p6IPHClsg6qV-8" value="&lt;font style=&quot;font-size: 30px;&quot; face=&quot;Comic Sans MS&quot;&gt;1&lt;/font&gt;" style="text;html=1;align=center;verticalAlign=middle;whiteSpace=wrap;rounded=0;fillColor=#dae8fc;strokeColor=#6c8ebf;labelBorderColor=none;" parent="1" vertex="1">
          <mxGeometry x="20" y="-1125" width="80" height="50" as="geometry" />
        </mxCell>
        <mxCell id="QgtI1r11p6IPHClsg6qV-5" value="&lt;font style=&quot;font-size: 30px;&quot; face=&quot;Comic Sans MS&quot;&gt;2&lt;/font&gt;" style="text;html=1;align=center;verticalAlign=middle;whiteSpace=wrap;rounded=0;fillColor=#dae8fc;strokeColor=#6c8ebf;labelBorderColor=none;" parent="1" vertex="1">
          <mxGeometry x="1056" y="-1100" width="80" height="50" as="geometry" />
        </mxCell>
        <mxCell id="QgtI1r11p6IPHClsg6qV-11" value="&lt;div style=&quot;&quot;&gt;&lt;font color=&quot;#333333&quot;&gt;&lt;span style=&quot;font-size: 15px;&quot;&gt;&lt;b&gt;Relationships&lt;/b&gt;&lt;/span&gt;&lt;/font&gt;&lt;br&gt;&lt;/div&gt;&lt;div style=&quot;font-size: 15px;&quot;&gt;&lt;div style=&quot;&quot;&gt;&lt;div&gt;- id (primary key)&lt;/div&gt;&lt;div&gt;- characterId&lt;/div&gt;&lt;div&gt;- relationTo (foreign key referencing character.id)&lt;/div&gt;&lt;div&gt;- relationType (enum) [parent, sibling, marriedEngaged]&amp;nbsp;&lt;/div&gt;&lt;/div&gt;&lt;/div&gt;" style="shape=note;size=20;whiteSpace=wrap;html=1;align=left;fillColor=#fff2cc;strokeColor=#d6b656;fontFamily=Comic Sans MS;" parent="1" vertex="1">
          <mxGeometry x="590" y="-740" width="400" height="130" as="geometry" />
        </mxCell>
        <mxCell id="QgtI1r11p6IPHClsg6qV-12" value="&lt;div style=&quot;&quot;&gt;&lt;font color=&quot;#333333&quot;&gt;&lt;span style=&quot;font-size: 15px;&quot;&gt;&lt;b&gt;Actors&lt;/b&gt;&lt;/span&gt;&lt;/font&gt;&lt;br&gt;&lt;/div&gt;&lt;div style=&quot;font-size: 15px;&quot;&gt;&lt;div style=&quot;&quot;&gt;&lt;div&gt;- id (primary key)&lt;/div&gt;&lt;div&gt;- characterId&lt;/div&gt;&lt;div&gt;- name&lt;/div&gt;&lt;div&gt;- link&lt;/div&gt;&lt;/div&gt;&lt;/div&gt;" style="shape=note;size=20;whiteSpace=wrap;html=1;align=left;fillColor=#fff2cc;strokeColor=#d6b656;fontFamily=Comic Sans MS;" parent="1" vertex="1">
          <mxGeometry x="880" y="-1000" width="160" height="100" as="geometry" />
        </mxCell>
        <mxCell id="QgtI1r11p6IPHClsg6qV-13" value="&lt;div style=&quot;&quot;&gt;&lt;font color=&quot;#333333&quot;&gt;&lt;span style=&quot;font-size: 15px;&quot;&gt;&lt;b&gt;Actions&lt;/b&gt;&lt;/span&gt;&lt;/font&gt;&lt;br&gt;&lt;/div&gt;&lt;div style=&quot;&quot;&gt;&lt;div style=&quot;&quot;&gt;&lt;div style=&quot;&quot;&gt;&lt;span style=&quot;font-size: 15px;&quot;&gt;- id (primary key)&lt;/span&gt;&lt;/div&gt;&lt;div style=&quot;&quot;&gt;&lt;span style=&quot;font-size: 15px;&quot;&gt;- characterId&lt;/span&gt;&lt;/div&gt;&lt;div style=&quot;&quot;&gt;&lt;span style=&quot;font-size: 15px;&quot;&gt;- actionTo (foreign key referencing character.id)&amp;nbsp;&lt;/span&gt;&lt;/div&gt;&lt;div style=&quot;&quot;&gt;&lt;span style=&quot;font-size: 15px;&quot;&gt;- actionType (enum) [abducted, abductedBy, ...]&lt;/span&gt;&lt;/div&gt;&lt;/div&gt;&lt;/div&gt;" style="shape=note;size=20;whiteSpace=wrap;html=1;align=left;fillColor=#fff2cc;strokeColor=#d6b656;fontFamily=Comic Sans MS;" parent="1" vertex="1">
          <mxGeometry x="1111" y="-730" width="400" height="130" as="geometry" />
        </mxCell>
        <mxCell id="QgtI1r11p6IPHClsg6qV-17" value="&lt;div style=&quot;&quot;&gt;&lt;span style=&quot;background-color: initial; font-size: 15px;&quot;&gt;&lt;font color=&quot;#333333&quot;&gt;&lt;b&gt;ActiveSeasons&lt;/b&gt;&lt;/font&gt;&lt;/span&gt;&lt;/div&gt;&lt;div style=&quot;font-size: 15px;&quot;&gt;&lt;div&gt;- id (primary key)&lt;/div&gt;&lt;div&gt;- actorId&amp;nbsp;&lt;/div&gt;&lt;div&gt;- seasonNumber&lt;/div&gt;&lt;/div&gt;" style="shape=note;size=20;whiteSpace=wrap;html=1;align=left;fillColor=#fff2cc;strokeColor=#d6b656;fontFamily=Comic Sans MS;" parent="1" vertex="1">
          <mxGeometry x="880" y="-870" width="160" height="100" as="geometry" />
        </mxCell>
        <mxCell id="QgtI1r11p6IPHClsg6qV-18" value="&lt;div style=&quot;&quot;&gt;&lt;font color=&quot;#333333&quot;&gt;&lt;span style=&quot;font-size: 15px;&quot;&gt;&lt;b&gt;Houses&lt;/b&gt;&lt;/span&gt;&lt;/font&gt;&lt;br&gt;&lt;/div&gt;&lt;div style=&quot;&quot;&gt;&lt;div style=&quot;&quot;&gt;&lt;div style=&quot;&quot;&gt;&lt;span style=&quot;font-size: 15px;&quot;&gt;- id (primary key)&lt;/span&gt;&lt;/div&gt;&lt;div style=&quot;&quot;&gt;&lt;span style=&quot;font-size: 15px;&quot;&gt;- characterId&lt;/span&gt;&lt;/div&gt;&lt;div style=&quot;&quot;&gt;&lt;span style=&quot;font-size: 15px;&quot;&gt;- name (enum) [Stark, Tyrell, Bolton, ...]&lt;/span&gt;&lt;/div&gt;&lt;/div&gt;&lt;/div&gt;" style="shape=note;size=20;whiteSpace=wrap;html=1;align=left;fillColor=#fff2cc;strokeColor=#d6b656;fontFamily=Comic Sans MS;" parent="1" vertex="1">
          <mxGeometry x="1111" y="-990" width="319" height="100" as="geometry" />
        </mxCell>
        <mxCell id="QgtI1r11p6IPHClsg6qV-19" value="&lt;div style=&quot;&quot;&gt;&lt;font color=&quot;#333333&quot;&gt;&lt;span style=&quot;font-size: 15px;&quot;&gt;&lt;b&gt;Allies&lt;/b&gt;&lt;/span&gt;&lt;/font&gt;&lt;/div&gt;&lt;div style=&quot;&quot;&gt;&lt;div style=&quot;font-size: 15px;&quot;&gt;&lt;div style=&quot;&quot;&gt;&lt;div&gt;- id (primary key)&lt;/div&gt;&lt;div&gt;- characterId&lt;/div&gt;&lt;div&gt;- allyId (foreign key referencing character.id)&lt;/div&gt;&lt;/div&gt;&lt;/div&gt;&lt;/div&gt;" style="shape=note;size=20;whiteSpace=wrap;html=1;align=left;fillColor=#fff2cc;strokeColor=#d6b656;fontFamily=Comic Sans MS;" parent="1" vertex="1">
          <mxGeometry x="1111" y="-870" width="359" height="100" as="geometry" />
        </mxCell>
        <mxCell id="QgtI1r11p6IPHClsg6qV-20" value="&lt;div style=&quot;font-family: &amp;quot;Comic Sans MS&amp;quot;;&quot;&gt;&lt;font color=&quot;#333333&quot;&gt;&lt;span style=&quot;font-size: 15px;&quot;&gt;&lt;b&gt;API Design&lt;/b&gt;&lt;/span&gt;&lt;/font&gt;&lt;/div&gt;&lt;div&gt;&lt;font color=&quot;#333333&quot;&gt;&lt;span style=&quot;font-size: 15px;&quot;&gt;&lt;b&gt;&lt;br&gt;&lt;/b&gt;&lt;/span&gt;&lt;/font&gt;&lt;/div&gt;" style="text;html=1;align=center;verticalAlign=top;whiteSpace=wrap;rounded=0;fillColor=#fff2cc;strokeColor=#d6b656;" parent="1" vertex="1">
          <mxGeometry x="-160" y="-265" width="170" height="40" as="geometry" />
        </mxCell>
        <mxCell id="QgtI1r11p6IPHClsg6qV-21" value="&lt;font style=&quot;font-size: 30px;&quot; face=&quot;Comic Sans MS&quot;&gt;3&lt;/font&gt;" style="text;html=1;align=center;verticalAlign=middle;whiteSpace=wrap;rounded=0;fillColor=#dae8fc;strokeColor=#6c8ebf;labelBorderColor=none;" parent="1" vertex="1">
          <mxGeometry x="-10" y="-270" width="80" height="50" as="geometry" />
        </mxCell>
        <mxCell id="QgtI1r11p6IPHClsg6qV-22" value="&lt;div style=&quot;&quot;&gt;&lt;b style=&quot;background-color: initial; font-size: 15px; color: rgb(51, 51, 51);&quot;&gt;GET /v1/characters/:characterId -&amp;gt; Character (with details like housename, action etc)&lt;/b&gt;&lt;br&gt;&lt;/div&gt;&lt;div style=&quot;&quot;&gt;&lt;br&gt;&lt;/div&gt;&lt;div style=&quot;&quot;&gt;&lt;br&gt;&lt;/div&gt;&lt;div style=&quot;&quot;&gt;&lt;font color=&quot;#333333&quot;&gt;&lt;span style=&quot;font-size: 15px;&quot;&gt;&lt;b&gt;GET /v1/&lt;/b&gt;&lt;/span&gt;&lt;/font&gt;&lt;b style=&quot;background-color: initial; color: rgb(51, 51, 51); font-size: 15px;&quot;&gt;characters?name=:name &amp;amp; actorName=:actorName &amp;amp; seasonNumber:seasonNumber&amp;nbsp; -&amp;gt; Character[]&lt;/b&gt;&lt;br&gt;&lt;/div&gt;&lt;div style=&quot;&quot;&gt;&lt;b style=&quot;background-color: initial; color: rgb(51, 51, 51); font-size: 15px;&quot;&gt;&lt;br&gt;&lt;/b&gt;&lt;/div&gt;&lt;div style=&quot;&quot;&gt;&lt;font color=&quot;#333333&quot;&gt;&lt;span style=&quot;font-size: 15px;&quot;&gt;&lt;b&gt;POST /v1/&lt;/b&gt;&lt;/span&gt;&lt;/font&gt;&lt;b style=&quot;background-color: initial; color: rgb(51, 51, 51); font-size: 15px;&quot;&gt;character&lt;/b&gt;&lt;b style=&quot;background-color: initial; color: rgb(51, 51, 51); font-size: 15px;&quot;&gt;&lt;br&gt;&lt;/b&gt;&lt;/div&gt;&lt;div style=&quot;&quot;&gt;&lt;b style=&quot;background-color: initial; color: rgb(51, 51, 51); font-size: 15px;&quot;&gt;body: {&lt;/b&gt;&lt;/div&gt;&lt;div style=&quot;&quot;&gt;&lt;font color=&quot;#333333&quot;&gt;&lt;span style=&quot;font-size: 15px;&quot;&gt;&lt;b&gt;&amp;nbsp; &quot;name&quot; : string,&lt;/b&gt;&lt;/span&gt;&lt;/font&gt;&lt;/div&gt;&lt;div style=&quot;&quot;&gt;&lt;font color=&quot;#333333&quot;&gt;&lt;span style=&quot;font-size: 15px;&quot;&gt;&lt;b&gt;&amp;nbsp; &amp;nbsp;...&lt;/b&gt;&lt;/span&gt;&lt;/font&gt;&lt;/div&gt;&lt;div style=&quot;&quot;&gt;&lt;b style=&quot;background-color: initial; color: rgb(51, 51, 51); font-size: 15px;&quot;&gt;}&lt;/b&gt;&lt;/div&gt;&lt;div style=&quot;&quot;&gt;&lt;b style=&quot;background-color: initial; color: rgb(51, 51, 51); font-size: 15px;&quot;&gt;&lt;br&gt;&lt;/b&gt;&lt;/div&gt;&lt;div style=&quot;&quot;&gt;&lt;div&gt;&lt;font color=&quot;#333333&quot;&gt;&lt;span style=&quot;font-size: 15px;&quot;&gt;&lt;b&gt;PUT /v1/&lt;/b&gt;&lt;/span&gt;&lt;/font&gt;&lt;b style=&quot;background-color: initial; color: rgb(51, 51, 51); font-size: 15px;&quot;&gt;character/:characterId&lt;/b&gt;&lt;b style=&quot;background-color: initial; color: rgb(51, 51, 51); font-size: 15px;&quot;&gt;&lt;br&gt;&lt;/b&gt;&lt;/div&gt;&lt;div&gt;&lt;b style=&quot;background-color: initial; color: rgb(51, 51, 51); font-size: 15px;&quot;&gt;body: {&lt;/b&gt;&lt;/div&gt;&lt;div&gt;&lt;font color=&quot;#333333&quot;&gt;&lt;span style=&quot;font-size: 15px;&quot;&gt;&lt;b&gt;&amp;nbsp; &quot;name&quot; : string,&lt;/b&gt;&lt;/span&gt;&lt;/font&gt;&lt;/div&gt;&lt;div&gt;&lt;font color=&quot;#333333&quot;&gt;&lt;span style=&quot;font-size: 15px;&quot;&gt;&lt;b&gt;&amp;nbsp; &amp;nbsp;...&lt;/b&gt;&lt;/span&gt;&lt;/font&gt;&lt;/div&gt;&lt;div&gt;&lt;b style=&quot;background-color: initial; color: rgb(51, 51, 51); font-size: 15px;&quot;&gt;}&lt;/b&gt;&lt;/div&gt;&lt;div&gt;&lt;b style=&quot;background-color: initial; color: rgb(51, 51, 51); font-size: 15px;&quot;&gt;&lt;br&gt;&lt;/b&gt;&lt;/div&gt;&lt;div&gt;&lt;font color=&quot;#333333&quot;&gt;&lt;span style=&quot;font-size: 15px;&quot;&gt;&lt;b&gt;DELETE /v1/&lt;/b&gt;&lt;/span&gt;&lt;/font&gt;&lt;b style=&quot;background-color: initial; color: rgb(51, 51, 51); font-size: 15px;&quot;&gt;character/:characterId&lt;/b&gt;&lt;b style=&quot;background-color: initial; color: rgb(51, 51, 51); font-size: 15px;&quot;&gt;&lt;br&gt;&lt;/b&gt;&lt;/div&gt;&lt;/div&gt;" style="shape=note;size=20;whiteSpace=wrap;html=1;align=left;fillColor=#fff2cc;strokeColor=#d6b656;fontFamily=Comic Sans MS;" parent="1" vertex="1">
          <mxGeometry x="-240" y="-200" width="590" height="390" as="geometry" />
        </mxCell>
        <mxCell id="QgtI1r11p6IPHClsg6qV-26" value="&lt;div style=&quot;font-family: &amp;quot;Comic Sans MS&amp;quot;;&quot;&gt;&lt;font color=&quot;#333333&quot;&gt;&lt;span style=&quot;font-size: 15px;&quot;&gt;&lt;b&gt;HIGH Level Design&lt;/b&gt;&lt;/span&gt;&lt;/font&gt;&lt;/div&gt;&lt;div&gt;&lt;font color=&quot;#333333&quot;&gt;&lt;span style=&quot;font-size: 15px;&quot;&gt;&lt;b&gt;&lt;br&gt;&lt;/b&gt;&lt;/span&gt;&lt;/font&gt;&lt;/div&gt;" style="text;html=1;align=center;verticalAlign=top;whiteSpace=wrap;rounded=0;fillColor=#fff2cc;strokeColor=#d6b656;" parent="1" vertex="1">
          <mxGeometry x="1030" y="-395" width="185" height="40" as="geometry" />
        </mxCell>
        <mxCell id="QgtI1r11p6IPHClsg6qV-27" value="&lt;font style=&quot;font-size: 30px;&quot; face=&quot;Comic Sans MS&quot;&gt;4&lt;/font&gt;" style="text;html=1;align=center;verticalAlign=middle;whiteSpace=wrap;rounded=0;fillColor=#dae8fc;strokeColor=#6c8ebf;labelBorderColor=none;" parent="1" vertex="1">
          <mxGeometry x="1195" y="-400" width="80" height="50" as="geometry" />
        </mxCell>
        <mxCell id="QgtI1r11p6IPHClsg6qV-32" value="CREATE, READ, UPDATE, DELETE" style="endArrow=classic;html=1;rounded=0;exitX=1;exitY=0.5;exitDx=0;exitDy=0;entryX=0;entryY=0.5;entryDx=0;entryDy=0;" parent="1" source="Pq0L_0yq8aCEjUIHfz3s-2" target="Pq0L_0yq8aCEjUIHfz3s-3" edge="1">
          <mxGeometry x="-0.0005" width="50" height="50" relative="1" as="geometry">
            <mxPoint x="930" y="5" as="sourcePoint" />
            <mxPoint x="1130" y="-20" as="targetPoint" />
            <mxPoint as="offset" />
          </mxGeometry>
        </mxCell>
        <mxCell id="4vJJ6K0KEP0YaOhct_Nv-6" value="" style="shape=cylinder3;whiteSpace=wrap;html=1;boundedLbl=1;backgroundOutline=1;size=15;rotation=90;fillColor=#e1d5e7;strokeColor=#9673a6;" parent="1" vertex="1">
          <mxGeometry x="1131" y="-125" width="60" height="178.75" as="geometry" />
        </mxCell>
        <mxCell id="4vJJ6K0KEP0YaOhct_Nv-15" style="edgeStyle=orthogonalEdgeStyle;rounded=0;orthogonalLoop=1;jettySize=auto;html=1;exitX=0.5;exitY=1;exitDx=0;exitDy=0;" parent="1" source="Pq0L_0yq8aCEjUIHfz3s-3" target="4vJJ6K0KEP0YaOhct_Nv-6" edge="1">
          <mxGeometry relative="1" as="geometry">
            <mxPoint x="1241" y="-82.5" as="targetPoint" />
          </mxGeometry>
        </mxCell>
        <mxCell id="E148e3KQ5D5RCaCuS-HO-1" value="CREATE, UPDATE" style="edgeLabel;html=1;align=center;verticalAlign=middle;resizable=0;points=[];" vertex="1" connectable="0" parent="4vJJ6K0KEP0YaOhct_Nv-15">
          <mxGeometry x="-0.2354" y="-1" relative="1" as="geometry">
            <mxPoint as="offset" />
          </mxGeometry>
        </mxCell>
        <mxCell id="4vJJ6K0KEP0YaOhct_Nv-16" style="edgeStyle=orthogonalEdgeStyle;rounded=0;orthogonalLoop=1;jettySize=auto;html=1;entryX=0.5;entryY=0;entryDx=0;entryDy=0;entryPerimeter=0;exitX=0.5;exitY=0;exitDx=0;exitDy=0;exitPerimeter=0;" parent="1" source="4vJJ6K0KEP0YaOhct_Nv-6" target="Pq0L_0yq8aCEjUIHfz3s-15" edge="1">
          <mxGeometry relative="1" as="geometry">
            <mxPoint x="1343.5" y="-17.5" as="sourcePoint" />
          </mxGeometry>
        </mxCell>
        <mxCell id="4vJJ6K0KEP0YaOhct_Nv-19" value="&lt;font style=&quot;forced-color-adjust: none; color: rgb(0, 0, 0); font-family: &amp;quot;Comic Sans MS&amp;quot;; font-style: normal; font-variant-ligatures: normal; font-variant-caps: normal; font-weight: 400; letter-spacing: normal; orphans: 2; text-align: center; text-indent: 0px; text-transform: none; widows: 2; word-spacing: 0px; -webkit-text-stroke-width: 0px; white-space: normal; text-decoration-thickness: initial; text-decoration-style: initial; text-decoration-color: initial; font-size: 15px;&quot;&gt;&lt;b style=&quot;forced-color-adjust: none; background-color: rgb(225, 213, 231);&quot;&gt;Streaming Service&lt;/b&gt;&lt;/font&gt;&lt;div style=&quot;forced-color-adjust: none; color: rgb(0, 0, 0); font-family: &amp;quot;Comic Sans MS&amp;quot;; font-size: 12px; font-style: normal; font-variant-ligatures: normal; font-variant-caps: normal; font-weight: 400; letter-spacing: normal; orphans: 2; text-align: center; text-indent: 0px; text-transform: none; widows: 2; word-spacing: 0px; -webkit-text-stroke-width: 0px; white-space: normal; text-decoration-thickness: initial; text-decoration-style: initial; text-decoration-color: initial;&quot;&gt;&lt;font style=&quot;forced-color-adjust: none; font-size: 15px; background-color: rgb(225, 213, 231);&quot;&gt;(RABBITMQ)&lt;/font&gt;&lt;/div&gt;" style="text;whiteSpace=wrap;html=1;" parent="1" vertex="1">
          <mxGeometry x="1081" y="-57.5" width="140" height="60" as="geometry" />
        </mxCell>
      </root>
    </mxGraphModel>
  </diagram>
</mxfile>
